<?xml version="1.0" encoding="utf-8" standalone="no"?>
<!DOCTYPE svg PUBLIC "-//W3C//DTD SVG 1.1//EN"
  "http://www.w3.org/Graphics/SVG/1.1/DTD/svg11.dtd">
<svg xmlns:xlink="http://www.w3.org/1999/xlink" width="800.398468pt" height="317.99952pt" viewBox="0 0 800.398468 317.99952" xmlns="http://www.w3.org/2000/svg" version="1.1">
 <metadata>
  <rdf:RDF xmlns:dc="http://purl.org/dc/elements/1.1/" xmlns:cc="http://creativecommons.org/ns#" xmlns:rdf="http://www.w3.org/1999/02/22-rdf-syntax-ns#">
   <cc:Work>
    <dc:type rdf:resource="http://purl.org/dc/dcmitype/StillImage"/>
    <dc:date>2026-05-07T23:52:43.915623</dc:date>
    <dc:format>image/svg+xml</dc:format>
    <dc:creator>
     <cc:Agent>
      <dc:title>Matplotlib v3.10.9, https://matplotlib.org/</dc:title>
     </cc:Agent>
    </dc:creator>
   </cc:Work>
  </rdf:RDF>
 </metadata>
 <defs>
  <style type="text/css">*{stroke-linejoin: round; stroke-linecap: butt}</style>
 </defs>
 <g id="figure_1">
  <g id="patch_1">
   <path d="M 0 317.99952 
L 800.398468 317.99952 
L 800.398468 0 
L 0 0 
z
" style="fill: #ffffff"/>
  </g>
  <g id="axes_1">
   <g id="patch_2">
    <path d="M 58.523438 251.672332 
L 369.419434 251.672332 
L 369.419434 41.977355 
L 58.523438 41.977355 
z
" style="fill: #ffffff"/>
   </g>
   <g id="matplotlib.axis_1">
    <g id="xtick_1">
     <g id="line2d_1">
      <defs>
       <path id="ma813f02440" d="M 0 0 
L 0 3.5 
" style="stroke: #000000; stroke-width: 0.8"/>
      </defs>
      <g>
       <use xlink:href="#ma813f02440" x="72.655074" y="251.672332" style="stroke: #000000; stroke-width: 0.8"/>
      </g>
     </g>
     <g id="text_1">
      <!-- fee_only -->
      <g transform="translate(54.739207 283.300238) rotate(-25) scale(0.1 -0.1)">
       <defs>
        <path id="DejaVuSans-66" d="M 2375 4863 
L 2375 4384 
L 1825 4384 
Q 1516 4384 1395 4259 
Q 1275 4134 1275 3809 
L 1275 3500 
L 2222 3500 
L 2222 3053 
L 1275 3053 
L 1275 0 
L 697 0 
L 697 3053 
L 147 3053 
L 147 3500 
L 697 3500 
L 697 3744 
Q 697 4328 969 4595 
Q 1241 4863 1831 4863 
L 2375 4863 
z
" transform="scale(0.015625)"/>
        <path id="DejaVuSans-65" d="M 3597 1894 
L 3597 1613 
L 953 1613 
Q 991 1019 1311 708 
Q 1631 397 2203 397 
Q 2534 397 2845 478 
Q 3156 559 3463 722 
L 3463 178 
Q 3153 47 2828 -22 
Q 2503 -91 2169 -91 
Q 1331 -91 842 396 
Q 353 884 353 1716 
Q 353 2575 817 3079 
Q 1281 3584 2069 3584 
Q 2775 3584 3186 3129 
Q 3597 2675 3597 1894 
z
M 3022 2063 
Q 3016 2534 2758 2815 
Q 2500 3097 2075 3097 
Q 1594 3097 1305 2825 
Q 1016 2553 972 2059 
L 3022 2063 
z
" transform="scale(0.015625)"/>
        <path id="DejaVuSans-5f" d="M 3263 -1063 
L 3263 -1509 
L -63 -1509 
L -63 -1063 
L 3263 -1063 
z
" transform="scale(0.015625)"/>
        <path id="DejaVuSans-6f" d="M 1959 3097 
Q 1497 3097 1228 2736 
Q 959 2375 959 1747 
Q 959 1119 1226 758 
Q 1494 397 1959 397 
Q 2419 397 2687 759 
Q 2956 1122 2956 1747 
Q 2956 2369 2687 2733 
Q 2419 3097 1959 3097 
z
M 1959 3584 
Q 2709 3584 3137 3096 
Q 3566 2609 3566 1747 
Q 3566 888 3137 398 
Q 2709 -91 1959 -91 
Q 1206 -91 779 398 
Q 353 888 353 1747 
Q 353 2609 779 3096 
Q 1206 3584 1959 3584 
z
" transform="scale(0.015625)"/>
        <path id="DejaVuSans-6e" d="M 3513 2113 
L 3513 0 
L 2938 0 
L 2938 2094 
Q 2938 2591 2744 2837 
Q 2550 3084 2163 3084 
Q 1697 3084 1428 2787 
Q 1159 2491 1159 1978 
L 1159 0 
L 581 0 
L 581 3500 
L 1159 3500 
L 1159 2956 
Q 1366 3272 1645 3428 
Q 1925 3584 2291 3584 
Q 2894 3584 3203 3211 
Q 3513 2838 3513 2113 
z
" transform="scale(0.015625)"/>
        <path id="DejaVuSans-6c" d="M 603 4863 
L 1178 4863 
L 1178 0 
L 603 0 
L 603 4863 
z
" transform="scale(0.015625)"/>
        <path id="DejaVuSans-79" d="M 2059 -325 
Q 1816 -950 1584 -1140 
Q 1353 -1331 966 -1331 
L 506 -1331 
L 506 -850 
L 844 -850 
Q 1081 -850 1212 -737 
Q 1344 -625 1503 -206 
L 1606 56 
L 191 3500 
L 800 3500 
L 1894 763 
L 2988 3500 
L 3597 3500 
L 2059 -325 
z
" transform="scale(0.015625)"/>
       </defs>
       <use xlink:href="#DejaVuSans-66"/>
       <use xlink:href="#DejaVuSans-65" transform="translate(35.205078 0)"/>
       <use xlink:href="#DejaVuSans-65" transform="translate(96.728516 0)"/>
       <use xlink:href="#DejaVuSans-5f" transform="translate(158.251953 0)"/>
       <use xlink:href="#DejaVuSans-6f" transform="translate(208.251953 0)"/>
       <use xlink:href="#DejaVuSans-6e" transform="translate(269.433594 0)"/>
       <use xlink:href="#DejaVuSans-6c" transform="translate(332.8125 0)"/>
       <use xlink:href="#DejaVuSans-79" transform="translate(360.595703 0)"/>
      </g>
     </g>
    </g>
    <g id="xtick_2">
     <g id="line2d_2">
      <g>
       <use xlink:href="#ma813f02440" x="213.971436" y="251.672332" style="stroke: #000000; stroke-width: 0.8"/>
      </g>
     </g>
     <g id="text_2">
      <!-- fee_spread -->
      <g transform="translate(190.200679 288.760598) rotate(-25) scale(0.1 -0.1)">
       <defs>
        <path id="DejaVuSans-73" d="M 2834 3397 
L 2834 2853 
Q 2591 2978 2328 3040 
Q 2066 3103 1784 3103 
Q 1356 3103 1142 2972 
Q 928 2841 928 2578 
Q 928 2378 1081 2264 
Q 1234 2150 1697 2047 
L 1894 2003 
Q 2506 1872 2764 1633 
Q 3022 1394 3022 966 
Q 3022 478 2636 193 
Q 2250 -91 1575 -91 
Q 1294 -91 989 -36 
Q 684 19 347 128 
L 347 722 
Q 666 556 975 473 
Q 1284 391 1588 391 
Q 1994 391 2212 530 
Q 2431 669 2431 922 
Q 2431 1156 2273 1281 
Q 2116 1406 1581 1522 
L 1381 1569 
Q 847 1681 609 1914 
Q 372 2147 372 2553 
Q 372 3047 722 3315 
Q 1072 3584 1716 3584 
Q 2034 3584 2315 3537 
Q 2597 3491 2834 3397 
z
" transform="scale(0.015625)"/>
        <path id="DejaVuSans-70" d="M 1159 525 
L 1159 -1331 
L 581 -1331 
L 581 3500 
L 1159 3500 
L 1159 2969 
Q 1341 3281 1617 3432 
Q 1894 3584 2278 3584 
Q 2916 3584 3314 3078 
Q 3713 2572 3713 1747 
Q 3713 922 3314 415 
Q 2916 -91 2278 -91 
Q 1894 -91 1617 61 
Q 1341 213 1159 525 
z
M 3116 1747 
Q 3116 2381 2855 2742 
Q 2594 3103 2138 3103 
Q 1681 3103 1420 2742 
Q 1159 2381 1159 1747 
Q 1159 1113 1420 752 
Q 1681 391 2138 391 
Q 2594 391 2855 752 
Q 3116 1113 3116 1747 
z
" transform="scale(0.015625)"/>
        <path id="DejaVuSans-72" d="M 2631 2963 
Q 2534 3019 2420 3045 
Q 2306 3072 2169 3072 
Q 1681 3072 1420 2755 
Q 1159 2438 1159 1844 
L 1159 0 
L 581 0 
L 581 3500 
L 1159 3500 
L 1159 2956 
Q 1341 3275 1631 3429 
Q 1922 3584 2338 3584 
Q 2397 3584 2469 3576 
Q 2541 3569 2628 3553 
L 2631 2963 
z
" transform="scale(0.015625)"/>
        <path id="DejaVuSans-61" d="M 2194 1759 
Q 1497 1759 1228 1600 
Q 959 1441 959 1056 
Q 959 750 1161 570 
Q 1363 391 1709 391 
Q 2188 391 2477 730 
Q 2766 1069 2766 1631 
L 2766 1759 
L 2194 1759 
z
M 3341 1997 
L 3341 0 
L 2766 0 
L 2766 531 
Q 2569 213 2275 61 
Q 1981 -91 1556 -91 
Q 1019 -91 701 211 
Q 384 513 384 1019 
Q 384 1609 779 1909 
Q 1175 2209 1959 2209 
L 2766 2209 
L 2766 2266 
Q 2766 2663 2505 2880 
Q 2244 3097 1772 3097 
Q 1472 3097 1187 3025 
Q 903 2953 641 2809 
L 641 3341 
Q 956 3463 1253 3523 
Q 1550 3584 1831 3584 
Q 2591 3584 2966 3190 
Q 3341 2797 3341 1997 
z
" transform="scale(0.015625)"/>
        <path id="DejaVuSans-64" d="M 2906 2969 
L 2906 4863 
L 3481 4863 
L 3481 0 
L 2906 0 
L 2906 525 
Q 2725 213 2448 61 
Q 2172 -91 1784 -91 
Q 1150 -91 751 415 
Q 353 922 353 1747 
Q 353 2572 751 3078 
Q 1150 3584 1784 3584 
Q 2172 3584 2448 3432 
Q 2725 3281 2906 2969 
z
M 947 1747 
Q 947 1113 1208 752 
Q 1469 391 1925 391 
Q 2381 391 2643 752 
Q 2906 1113 2906 1747 
Q 2906 2381 2643 2742 
Q 2381 3103 1925 3103 
Q 1469 3103 1208 2742 
Q 947 2381 947 1747 
z
" transform="scale(0.015625)"/>
       </defs>
       <use xlink:href="#DejaVuSans-66"/>
       <use xlink:href="#DejaVuSans-65" transform="translate(35.205078 0)"/>
       <use xlink:href="#DejaVuSans-65" transform="translate(96.728516 0)"/>
       <use xlink:href="#DejaVuSans-5f" transform="translate(158.251953 0)"/>
       <use xlink:href="#DejaVuSans-73" transform="translate(208.251953 0)"/>
       <use xlink:href="#DejaVuSans-70" transform="translate(260.351562 0)"/>
       <use xlink:href="#DejaVuSans-72" transform="translate(323.828125 0)"/>
       <use xlink:href="#DejaVuSans-65" transform="translate(362.691406 0)"/>
       <use xlink:href="#DejaVuSans-61" transform="translate(424.214844 0)"/>
       <use xlink:href="#DejaVuSans-64" transform="translate(485.494141 0)"/>
      </g>
     </g>
    </g>
    <g id="xtick_3">
     <g id="line2d_3">
      <g>
       <use xlink:href="#ma813f02440" x="355.287798" y="251.672332" style="stroke: #000000; stroke-width: 0.8"/>
      </g>
     </g>
     <g id="text_3">
      <!-- fee_spread_slippage -->
      <g transform="translate(310.177033 308.662616) rotate(-25) scale(0.1 -0.1)">
       <defs>
        <path id="DejaVuSans-69" d="M 603 3500 
L 1178 3500 
L 1178 0 
L 603 0 
L 603 3500 
z
M 603 4863 
L 1178 4863 
L 1178 4134 
L 603 4134 
L 603 4863 
z
" transform="scale(0.015625)"/>
        <path id="DejaVuSans-67" d="M 2906 1791 
Q 2906 2416 2648 2759 
Q 2391 3103 1925 3103 
Q 1463 3103 1205 2759 
Q 947 2416 947 1791 
Q 947 1169 1205 825 
Q 1463 481 1925 481 
Q 2391 481 2648 825 
Q 2906 1169 2906 1791 
z
M 3481 434 
Q 3481 -459 3084 -895 
Q 2688 -1331 1869 -1331 
Q 1566 -1331 1297 -1286 
Q 1028 -1241 775 -1147 
L 775 -588 
Q 1028 -725 1275 -790 
Q 1522 -856 1778 -856 
Q 2344 -856 2625 -561 
Q 2906 -266 2906 331 
L 2906 616 
Q 2728 306 2450 153 
Q 2172 0 1784 0 
Q 1141 0 747 490 
Q 353 981 353 1791 
Q 353 2603 747 3093 
Q 1141 3584 1784 3584 
Q 2172 3584 2450 3431 
Q 2728 3278 2906 2969 
L 2906 3500 
L 3481 3500 
L 3481 434 
z
" transform="scale(0.015625)"/>
       </defs>
       <use xlink:href="#DejaVuSans-66"/>
       <use xlink:href="#DejaVuSans-65" transform="translate(35.205078 0)"/>
       <use xlink:href="#DejaVuSans-65" transform="translate(96.728516 0)"/>
       <use xlink:href="#DejaVuSans-5f" transform="translate(158.251953 0)"/>
       <use xlink:href="#DejaVuSans-73" transform="translate(208.251953 0)"/>
       <use xlink:href="#DejaVuSans-70" transform="translate(260.351562 0)"/>
       <use xlink:href="#DejaVuSans-72" transform="translate(323.828125 0)"/>
       <use xlink:href="#DejaVuSans-65" transform="translate(362.691406 0)"/>
       <use xlink:href="#DejaVuSans-61" transform="translate(424.214844 0)"/>
       <use xlink:href="#DejaVuSans-64" transform="translate(485.494141 0)"/>
       <use xlink:href="#DejaVuSans-5f" transform="translate(548.970703 0)"/>
       <use xlink:href="#DejaVuSans-73" transform="translate(598.970703 0)"/>
       <use xlink:href="#DejaVuSans-6c" transform="translate(651.070312 0)"/>
       <use xlink:href="#DejaVuSans-69" transform="translate(678.853516 0)"/>
       <use xlink:href="#DejaVuSans-70" transform="translate(706.636719 0)"/>
       <use xlink:href="#DejaVuSans-70" transform="translate(770.113281 0)"/>
       <use xlink:href="#DejaVuSans-61" transform="translate(833.589844 0)"/>
       <use xlink:href="#DejaVuSans-67" transform="translate(894.869141 0)"/>
       <use xlink:href="#DejaVuSans-65" transform="translate(958.345703 0)"/>
      </g>
     </g>
    </g>
   </g>
   <g id="matplotlib.axis_2">
    <g id="ytick_1">
     <g id="line2d_4">
      <path d="M 58.523438 214.10301 
L 369.419434 214.10301 
" clip-path="url(#p11838e4629)" style="fill: none; stroke: #e5e7eb; stroke-width: 0.8; stroke-linecap: square"/>
     </g>
     <g id="line2d_5">
      <defs>
       <path id="me9fbf7e120" d="M 0 0 
L -3.5 0 
" style="stroke: #000000; stroke-width: 0.8"/>
      </defs>
      <g>
       <use xlink:href="#me9fbf7e120" x="58.523438" y="214.10301" style="stroke: #000000; stroke-width: 0.8"/>
      </g>
     </g>
     <g id="text_4">
      <!-- −0.04 -->
      <g transform="translate(20.878125 217.902229) scale(0.1 -0.1)">
       <defs>
        <path id="DejaVuSans-2212" d="M 678 2272 
L 4684 2272 
L 4684 1741 
L 678 1741 
L 678 2272 
z
" transform="scale(0.015625)"/>
        <path id="DejaVuSans-30" d="M 2034 4250 
Q 1547 4250 1301 3770 
Q 1056 3291 1056 2328 
Q 1056 1369 1301 889 
Q 1547 409 2034 409 
Q 2525 409 2770 889 
Q 3016 1369 3016 2328 
Q 3016 3291 2770 3770 
Q 2525 4250 2034 4250 
z
M 2034 4750 
Q 2819 4750 3233 4129 
Q 3647 3509 3647 2328 
Q 3647 1150 3233 529 
Q 2819 -91 2034 -91 
Q 1250 -91 836 529 
Q 422 1150 422 2328 
Q 422 3509 836 4129 
Q 1250 4750 2034 4750 
z
" transform="scale(0.015625)"/>
        <path id="DejaVuSans-2e" d="M 684 794 
L 1344 794 
L 1344 0 
L 684 0 
L 684 794 
z
" transform="scale(0.015625)"/>
        <path id="DejaVuSans-34" d="M 2419 4116 
L 825 1625 
L 2419 1625 
L 2419 4116 
z
M 2253 4666 
L 3047 4666 
L 3047 1625 
L 3713 1625 
L 3713 1100 
L 3047 1100 
L 3047 0 
L 2419 0 
L 2419 1100 
L 313 1100 
L 313 1709 
L 2253 4666 
z
" transform="scale(0.015625)"/>
       </defs>
       <use xlink:href="#DejaVuSans-2212"/>
       <use xlink:href="#DejaVuSans-30" transform="translate(83.789062 0)"/>
       <use xlink:href="#DejaVuSans-2e" transform="translate(147.412109 0)"/>
       <use xlink:href="#DejaVuSans-30" transform="translate(179.199219 0)"/>
       <use xlink:href="#DejaVuSans-34" transform="translate(242.822266 0)"/>
      </g>
     </g>
    </g>
    <g id="ytick_2">
     <g id="line2d_6">
      <path d="M 58.523438 172.921922 
L 369.419434 172.921922 
" clip-path="url(#p11838e4629)" style="fill: none; stroke: #e5e7eb; stroke-width: 0.8; stroke-linecap: square"/>
     </g>
     <g id="line2d_7">
      <g>
       <use xlink:href="#me9fbf7e120" x="58.523438" y="172.921922" style="stroke: #000000; stroke-width: 0.8"/>
      </g>
     </g>
     <g id="text_5">
      <!-- −0.02 -->
      <g transform="translate(20.878125 176.721141) scale(0.1 -0.1)">
       <defs>
        <path id="DejaVuSans-32" d="M 1228 531 
L 3431 531 
L 3431 0 
L 469 0 
L 469 531 
Q 828 903 1448 1529 
Q 2069 2156 2228 2338 
Q 2531 2678 2651 2914 
Q 2772 3150 2772 3378 
Q 2772 3750 2511 3984 
Q 2250 4219 1831 4219 
Q 1534 4219 1204 4116 
Q 875 4013 500 3803 
L 500 4441 
Q 881 4594 1212 4672 
Q 1544 4750 1819 4750 
Q 2544 4750 2975 4387 
Q 3406 4025 3406 3419 
Q 3406 3131 3298 2873 
Q 3191 2616 2906 2266 
Q 2828 2175 2409 1742 
Q 1991 1309 1228 531 
z
" transform="scale(0.015625)"/>
       </defs>
       <use xlink:href="#DejaVuSans-2212"/>
       <use xlink:href="#DejaVuSans-30" transform="translate(83.789062 0)"/>
       <use xlink:href="#DejaVuSans-2e" transform="translate(147.412109 0)"/>
       <use xlink:href="#DejaVuSans-30" transform="translate(179.199219 0)"/>
       <use xlink:href="#DejaVuSans-32" transform="translate(242.822266 0)"/>
      </g>
     </g>
    </g>
    <g id="ytick_3">
     <g id="line2d_8">
      <path d="M 58.523438 131.740834 
L 369.419434 131.740834 
" clip-path="url(#p11838e4629)" style="fill: none; stroke: #e5e7eb; stroke-width: 0.8; stroke-linecap: square"/>
     </g>
     <g id="line2d_9">
      <g>
       <use xlink:href="#me9fbf7e120" x="58.523438" y="131.740834" style="stroke: #000000; stroke-width: 0.8"/>
      </g>
     </g>
     <g id="text_6">
      <!-- 0.00 -->
      <g transform="translate(29.257813 135.540053) scale(0.1 -0.1)">
       <use xlink:href="#DejaVuSans-30"/>
       <use xlink:href="#DejaVuSans-2e" transform="translate(63.623047 0)"/>
       <use xlink:href="#DejaVuSans-30" transform="translate(95.410156 0)"/>
       <use xlink:href="#DejaVuSans-30" transform="translate(159.033203 0)"/>
      </g>
     </g>
    </g>
    <g id="ytick_4">
     <g id="line2d_10">
      <path d="M 58.523438 90.559746 
L 369.419434 90.559746 
" clip-path="url(#p11838e4629)" style="fill: none; stroke: #e5e7eb; stroke-width: 0.8; stroke-linecap: square"/>
     </g>
     <g id="line2d_11">
      <g>
       <use xlink:href="#me9fbf7e120" x="58.523438" y="90.559746" style="stroke: #000000; stroke-width: 0.8"/>
      </g>
     </g>
     <g id="text_7">
      <!-- 0.02 -->
      <g transform="translate(29.257813 94.358965) scale(0.1 -0.1)">
       <use xlink:href="#DejaVuSans-30"/>
       <use xlink:href="#DejaVuSans-2e" transform="translate(63.623047 0)"/>
       <use xlink:href="#DejaVuSans-30" transform="translate(95.410156 0)"/>
       <use xlink:href="#DejaVuSans-32" transform="translate(159.033203 0)"/>
      </g>
     </g>
    </g>
    <g id="ytick_5">
     <g id="line2d_12">
      <path d="M 58.523438 49.378658 
L 369.419434 49.378658 
" clip-path="url(#p11838e4629)" style="fill: none; stroke: #e5e7eb; stroke-width: 0.8; stroke-linecap: square"/>
     </g>
     <g id="line2d_13">
      <g>
       <use xlink:href="#me9fbf7e120" x="58.523438" y="49.378658" style="stroke: #000000; stroke-width: 0.8"/>
      </g>
     </g>
     <g id="text_8">
      <!-- 0.04 -->
      <g transform="translate(29.257813 53.177877) scale(0.1 -0.1)">
       <use xlink:href="#DejaVuSans-30"/>
       <use xlink:href="#DejaVuSans-2e" transform="translate(63.623047 0)"/>
       <use xlink:href="#DejaVuSans-30" transform="translate(95.410156 0)"/>
       <use xlink:href="#DejaVuSans-34" transform="translate(159.033203 0)"/>
      </g>
     </g>
    </g>
    <g id="text_9">
     <!-- Probability points -->
     <g transform="translate(14.798438 190.199062) rotate(-90) scale(0.1 -0.1)">
      <defs>
       <path id="DejaVuSans-50" d="M 1259 4147 
L 1259 2394 
L 2053 2394 
Q 2494 2394 2734 2622 
Q 2975 2850 2975 3272 
Q 2975 3691 2734 3919 
Q 2494 4147 2053 4147 
L 1259 4147 
z
M 628 4666 
L 2053 4666 
Q 2838 4666 3239 4311 
Q 3641 3956 3641 3272 
Q 3641 2581 3239 2228 
Q 2838 1875 2053 1875 
L 1259 1875 
L 1259 0 
L 628 0 
L 628 4666 
z
" transform="scale(0.015625)"/>
       <path id="DejaVuSans-62" d="M 3116 1747 
Q 3116 2381 2855 2742 
Q 2594 3103 2138 3103 
Q 1681 3103 1420 2742 
Q 1159 2381 1159 1747 
Q 1159 1113 1420 752 
Q 1681 391 2138 391 
Q 2594 391 2855 752 
Q 3116 1113 3116 1747 
z
M 1159 2969 
Q 1341 3281 1617 3432 
Q 1894 3584 2278 3584 
Q 2916 3584 3314 3078 
Q 3713 2572 3713 1747 
Q 3713 922 3314 415 
Q 2916 -91 2278 -91 
Q 1894 -91 1617 61 
Q 1341 213 1159 525 
L 1159 0 
L 581 0 
L 581 4863 
L 1159 4863 
L 1159 2969 
z
" transform="scale(0.015625)"/>
       <path id="DejaVuSans-74" d="M 1172 4494 
L 1172 3500 
L 2356 3500 
L 2356 3053 
L 1172 3053 
L 1172 1153 
Q 1172 725 1289 603 
Q 1406 481 1766 481 
L 2356 481 
L 2356 0 
L 1766 0 
Q 1100 0 847 248 
Q 594 497 594 1153 
L 594 3053 
L 172 3053 
L 172 3500 
L 594 3500 
L 594 4494 
L 1172 4494 
z
" transform="scale(0.015625)"/>
       <path id="DejaVuSans-20" transform="scale(0.015625)"/>
      </defs>
      <use xlink:href="#DejaVuSans-50"/>
      <use xlink:href="#DejaVuSans-72" transform="translate(58.552734 0)"/>
      <use xlink:href="#DejaVuSans-6f" transform="translate(97.416016 0)"/>
      <use xlink:href="#DejaVuSans-62" transform="translate(158.597656 0)"/>
      <use xlink:href="#DejaVuSans-61" transform="translate(222.074219 0)"/>
      <use xlink:href="#DejaVuSans-62" transform="translate(283.353516 0)"/>
      <use xlink:href="#DejaVuSans-69" transform="translate(346.830078 0)"/>
      <use xlink:href="#DejaVuSans-6c" transform="translate(374.613281 0)"/>
      <use xlink:href="#DejaVuSans-69" transform="translate(402.396484 0)"/>
      <use xlink:href="#DejaVuSans-74" transform="translate(430.179688 0)"/>
      <use xlink:href="#DejaVuSans-79" transform="translate(469.388672 0)"/>
      <use xlink:href="#DejaVuSans-20" transform="translate(528.568359 0)"/>
      <use xlink:href="#DejaVuSans-70" transform="translate(560.355469 0)"/>
      <use xlink:href="#DejaVuSans-6f" transform="translate(623.832031 0)"/>
      <use xlink:href="#DejaVuSans-69" transform="translate(685.013672 0)"/>
      <use xlink:href="#DejaVuSans-6e" transform="translate(712.796875 0)"/>
      <use xlink:href="#DejaVuSans-74" transform="translate(776.175781 0)"/>
      <use xlink:href="#DejaVuSans-73" transform="translate(815.384766 0)"/>
     </g>
    </g>
   </g>
   <g id="line2d_14">
    <path d="M 72.655074 149.713202 
L 213.971436 160.014675 
L 355.287798 170.316149 
" clip-path="url(#p11838e4629)" style="fill: none; stroke: #6b7280; stroke-width: 1.5; stroke-linecap: square"/>
    <defs>
     <path id="mba078ed1a7" d="M 0 3 
C 0.795609 3 1.55874 2.683901 2.12132 2.12132 
C 2.683901 1.55874 3 0.795609 3 0 
C 3 -0.795609 2.683901 -1.55874 2.12132 -2.12132 
C 1.55874 -2.683901 0.795609 -3 0 -3 
C -0.795609 -3 -1.55874 -2.683901 -2.12132 -2.12132 
C -2.683901 -1.55874 -3 -0.795609 -3 0 
C -3 0.795609 -2.683901 1.55874 -2.12132 2.12132 
C -1.55874 2.683901 -0.795609 3 0 3 
z
" style="stroke: #6b7280"/>
    </defs>
    <g clip-path="url(#p11838e4629)">
     <use xlink:href="#mba078ed1a7" x="72.655074" y="149.713202" style="fill: #6b7280; stroke: #6b7280"/>
     <use xlink:href="#mba078ed1a7" x="213.971436" y="160.014675" style="fill: #6b7280; stroke: #6b7280"/>
     <use xlink:href="#mba078ed1a7" x="355.287798" y="170.316149" style="fill: #6b7280; stroke: #6b7280"/>
    </g>
   </g>
   <g id="line2d_15">
    <path d="M 72.655074 164.530558 
L 213.971436 174.832031 
L 355.287798 185.133505 
" clip-path="url(#p11838e4629)" style="fill: none; stroke: #2364aa; stroke-width: 1.5; stroke-linecap: square"/>
    <defs>
     <path id="m931f7ec1a5" d="M 0 3 
C 0.795609 3 1.55874 2.683901 2.12132 2.12132 
C 2.683901 1.55874 3 0.795609 3 0 
C 3 -0.795609 2.683901 -1.55874 2.12132 -2.12132 
C 1.55874 -2.683901 0.795609 -3 0 -3 
C -0.795609 -3 -1.55874 -2.683901 -2.12132 -2.12132 
C -2.683901 -1.55874 -3 -0.795609 -3 0 
C -3 0.795609 -2.683901 1.55874 -2.12132 2.12132 
C -1.55874 2.683901 -0.795609 3 0 3 
z
" style="stroke: #2364aa"/>
    </defs>
    <g clip-path="url(#p11838e4629)">
     <use xlink:href="#m931f7ec1a5" x="72.655074" y="164.530558" style="fill: #2364aa; stroke: #2364aa"/>
     <use xlink:href="#m931f7ec1a5" x="213.971436" y="174.832031" style="fill: #2364aa; stroke: #2364aa"/>
     <use xlink:href="#m931f7ec1a5" x="355.287798" y="185.133505" style="fill: #2364aa; stroke: #2364aa"/>
    </g>
   </g>
   <g id="line2d_16">
    <path d="M 72.655074 164.498261 
L 213.971436 174.799734 
L 355.287798 185.101208 
" clip-path="url(#p11838e4629)" style="fill: none; stroke: #2a9d8f; stroke-width: 1.5; stroke-linecap: square"/>
    <defs>
     <path id="m30ecddfba6" d="M 0 3 
C 0.795609 3 1.55874 2.683901 2.12132 2.12132 
C 2.683901 1.55874 3 0.795609 3 0 
C 3 -0.795609 2.683901 -1.55874 2.12132 -2.12132 
C 1.55874 -2.683901 0.795609 -3 0 -3 
C -0.795609 -3 -1.55874 -2.683901 -2.12132 -2.12132 
C -2.683901 -1.55874 -3 -0.795609 -3 0 
C -3 0.795609 -2.683901 1.55874 -2.12132 2.12132 
C -1.55874 2.683901 -0.795609 3 0 3 
z
" style="stroke: #2a9d8f"/>
    </defs>
    <g clip-path="url(#p11838e4629)">
     <use xlink:href="#m30ecddfba6" x="72.655074" y="164.498261" style="fill: #2a9d8f; stroke: #2a9d8f"/>
     <use xlink:href="#m30ecddfba6" x="213.971436" y="174.799734" style="fill: #2a9d8f; stroke: #2a9d8f"/>
     <use xlink:href="#m30ecddfba6" x="355.287798" y="185.101208" style="fill: #2a9d8f; stroke: #2a9d8f"/>
    </g>
   </g>
   <g id="line2d_17">
    <path d="M 72.655074 165.194353 
L 213.971436 175.495826 
L 355.287798 185.7973 
" clip-path="url(#p11838e4629)" style="fill: none; stroke: #d95f02; stroke-width: 1.5; stroke-linecap: square"/>
    <defs>
     <path id="m49519cc38a" d="M 0 3 
C 0.795609 3 1.55874 2.683901 2.12132 2.12132 
C 2.683901 1.55874 3 0.795609 3 0 
C 3 -0.795609 2.683901 -1.55874 2.12132 -2.12132 
C 1.55874 -2.683901 0.795609 -3 0 -3 
C -0.795609 -3 -1.55874 -2.683901 -2.12132 -2.12132 
C -2.683901 -1.55874 -3 -0.795609 -3 0 
C -3 0.795609 -2.683901 1.55874 -2.12132 2.12132 
C -1.55874 2.683901 -0.795609 3 0 3 
z
" style="stroke: #d95f02"/>
    </defs>
    <g clip-path="url(#p11838e4629)">
     <use xlink:href="#m49519cc38a" x="72.655074" y="165.194353" style="fill: #d95f02; stroke: #d95f02"/>
     <use xlink:href="#m49519cc38a" x="213.971436" y="175.495826" style="fill: #d95f02; stroke: #d95f02"/>
     <use xlink:href="#m49519cc38a" x="355.287798" y="185.7973" style="fill: #d95f02; stroke: #d95f02"/>
    </g>
   </g>
   <g id="line2d_18">
    <path d="M 72.655074 221.537795 
L 213.971436 231.839269 
L 355.287798 242.140742 
" clip-path="url(#p11838e4629)" style="fill: none; stroke: #1f77b4; stroke-width: 1.5; stroke-linecap: square"/>
    <defs>
     <path id="m0e2b29329b" d="M 0 3 
C 0.795609 3 1.55874 2.683901 2.12132 2.12132 
C 2.683901 1.55874 3 0.795609 3 0 
C 3 -0.795609 2.683901 -1.55874 2.12132 -2.12132 
C 1.55874 -2.683901 0.795609 -3 0 -3 
C -0.795609 -3 -1.55874 -2.683901 -2.12132 -2.12132 
C -2.683901 -1.55874 -3 -0.795609 -3 0 
C -3 0.795609 -2.683901 1.55874 -2.12132 2.12132 
C -1.55874 2.683901 -0.795609 3 0 3 
z
" style="stroke: #1f77b4"/>
    </defs>
    <g clip-path="url(#p11838e4629)">
     <use xlink:href="#m0e2b29329b" x="72.655074" y="221.537795" style="fill: #1f77b4; stroke: #1f77b4"/>
     <use xlink:href="#m0e2b29329b" x="213.971436" y="231.839269" style="fill: #1f77b4; stroke: #1f77b4"/>
     <use xlink:href="#m0e2b29329b" x="355.287798" y="242.140742" style="fill: #1f77b4; stroke: #1f77b4"/>
    </g>
   </g>
   <g id="line2d_19">
    <path d="M 72.655074 51.508945 
L 213.971436 61.810418 
L 355.287798 72.111892 
" clip-path="url(#p11838e4629)" style="fill: none; stroke: #ff7f0e; stroke-width: 1.5; stroke-linecap: square"/>
    <defs>
     <path id="m98c6121075" d="M 0 3 
C 0.795609 3 1.55874 2.683901 2.12132 2.12132 
C 2.683901 1.55874 3 0.795609 3 0 
C 3 -0.795609 2.683901 -1.55874 2.12132 -2.12132 
C 1.55874 -2.683901 0.795609 -3 0 -3 
C -0.795609 -3 -1.55874 -2.683901 -2.12132 -2.12132 
C -2.683901 -1.55874 -3 -0.795609 -3 0 
C -3 0.795609 -2.683901 1.55874 -2.12132 2.12132 
C -1.55874 2.683901 -0.795609 3 0 3 
z
" style="stroke: #ff7f0e"/>
    </defs>
    <g clip-path="url(#p11838e4629)">
     <use xlink:href="#m98c6121075" x="72.655074" y="51.508945" style="fill: #ff7f0e; stroke: #ff7f0e"/>
     <use xlink:href="#m98c6121075" x="213.971436" y="61.810418" style="fill: #ff7f0e; stroke: #ff7f0e"/>
     <use xlink:href="#m98c6121075" x="355.287798" y="72.111892" style="fill: #ff7f0e; stroke: #ff7f0e"/>
    </g>
   </g>
   <g id="line2d_20">
    <path d="M 58.523438 131.740834 
L 369.419434 131.740834 
" clip-path="url(#p11838e4629)" style="fill: none; stroke: #111827; stroke-width: 0.9; stroke-linecap: square"/>
   </g>
   <g id="patch_3">
    <path d="M 58.523438 251.672332 
L 58.523438 41.977355 
" style="fill: none; stroke: #000000; stroke-width: 0.8; stroke-linejoin: miter; stroke-linecap: square"/>
   </g>
   <g id="patch_4">
    <path d="M 58.523438 251.672332 
L 369.419434 251.672332 
" style="fill: none; stroke: #000000; stroke-width: 0.8; stroke-linejoin: miter; stroke-linecap: square"/>
   </g>
   <g id="text_10">
    <!-- Mean net edge -->
    <g transform="translate(163.495498 35.977355) scale(0.12 -0.12)">
     <defs>
      <path id="DejaVuSans-Bold-4d" d="M 588 4666 
L 2119 4666 
L 3181 2169 
L 4250 4666 
L 5778 4666 
L 5778 0 
L 4641 0 
L 4641 3413 
L 3566 897 
L 2803 897 
L 1728 3413 
L 1728 0 
L 588 0 
L 588 4666 
z
" transform="scale(0.015625)"/>
      <path id="DejaVuSans-Bold-65" d="M 4031 1759 
L 4031 1441 
L 1416 1441 
Q 1456 1047 1700 850 
Q 1944 653 2381 653 
Q 2734 653 3104 758 
Q 3475 863 3866 1075 
L 3866 213 
Q 3469 63 3072 -14 
Q 2675 -91 2278 -91 
Q 1328 -91 801 392 
Q 275 875 275 1747 
Q 275 2603 792 3093 
Q 1309 3584 2216 3584 
Q 3041 3584 3536 3087 
Q 4031 2591 4031 1759 
z
M 2881 2131 
Q 2881 2450 2695 2645 
Q 2509 2841 2209 2841 
Q 1884 2841 1681 2658 
Q 1478 2475 1428 2131 
L 2881 2131 
z
" transform="scale(0.015625)"/>
      <path id="DejaVuSans-Bold-61" d="M 2106 1575 
Q 1756 1575 1579 1456 
Q 1403 1338 1403 1106 
Q 1403 894 1545 773 
Q 1688 653 1941 653 
Q 2256 653 2472 879 
Q 2688 1106 2688 1447 
L 2688 1575 
L 2106 1575 
z
M 3816 1997 
L 3816 0 
L 2688 0 
L 2688 519 
Q 2463 200 2181 54 
Q 1900 -91 1497 -91 
Q 953 -91 614 226 
Q 275 544 275 1050 
Q 275 1666 698 1953 
Q 1122 2241 2028 2241 
L 2688 2241 
L 2688 2328 
Q 2688 2594 2478 2717 
Q 2269 2841 1825 2841 
Q 1466 2841 1156 2769 
Q 847 2697 581 2553 
L 581 3406 
Q 941 3494 1303 3539 
Q 1666 3584 2028 3584 
Q 2975 3584 3395 3211 
Q 3816 2838 3816 1997 
z
" transform="scale(0.015625)"/>
      <path id="DejaVuSans-Bold-6e" d="M 4056 2131 
L 4056 0 
L 2931 0 
L 2931 347 
L 2931 1631 
Q 2931 2084 2911 2256 
Q 2891 2428 2841 2509 
Q 2775 2619 2662 2680 
Q 2550 2741 2406 2741 
Q 2056 2741 1856 2470 
Q 1656 2200 1656 1722 
L 1656 0 
L 538 0 
L 538 3500 
L 1656 3500 
L 1656 2988 
Q 1909 3294 2193 3439 
Q 2478 3584 2822 3584 
Q 3428 3584 3742 3212 
Q 4056 2841 4056 2131 
z
" transform="scale(0.015625)"/>
      <path id="DejaVuSans-Bold-20" transform="scale(0.015625)"/>
      <path id="DejaVuSans-Bold-74" d="M 1759 4494 
L 1759 3500 
L 2913 3500 
L 2913 2700 
L 1759 2700 
L 1759 1216 
Q 1759 972 1856 886 
Q 1953 800 2241 800 
L 2816 800 
L 2816 0 
L 1856 0 
Q 1194 0 917 276 
Q 641 553 641 1216 
L 641 2700 
L 84 2700 
L 84 3500 
L 641 3500 
L 641 4494 
L 1759 4494 
z
" transform="scale(0.015625)"/>
      <path id="DejaVuSans-Bold-64" d="M 2919 2988 
L 2919 4863 
L 4044 4863 
L 4044 0 
L 2919 0 
L 2919 506 
Q 2688 197 2409 53 
Q 2131 -91 1766 -91 
Q 1119 -91 703 423 
Q 288 938 288 1747 
Q 288 2556 703 3070 
Q 1119 3584 1766 3584 
Q 2128 3584 2408 3439 
Q 2688 3294 2919 2988 
z
M 2181 722 
Q 2541 722 2730 984 
Q 2919 1247 2919 1747 
Q 2919 2247 2730 2509 
Q 2541 2772 2181 2772 
Q 1825 2772 1636 2509 
Q 1447 2247 1447 1747 
Q 1447 1247 1636 984 
Q 1825 722 2181 722 
z
" transform="scale(0.015625)"/>
      <path id="DejaVuSans-Bold-67" d="M 2919 594 
Q 2688 288 2409 144 
Q 2131 0 1766 0 
Q 1125 0 706 504 
Q 288 1009 288 1791 
Q 288 2575 706 3076 
Q 1125 3578 1766 3578 
Q 2131 3578 2409 3434 
Q 2688 3291 2919 2981 
L 2919 3500 
L 4044 3500 
L 4044 353 
Q 4044 -491 3511 -936 
Q 2978 -1381 1966 -1381 
Q 1638 -1381 1331 -1331 
Q 1025 -1281 716 -1178 
L 716 -306 
Q 1009 -475 1290 -558 
Q 1572 -641 1856 -641 
Q 2406 -641 2662 -400 
Q 2919 -159 2919 353 
L 2919 594 
z
M 2181 2772 
Q 1834 2772 1640 2515 
Q 1447 2259 1447 1791 
Q 1447 1309 1634 1061 
Q 1822 813 2181 813 
Q 2531 813 2725 1069 
Q 2919 1325 2919 1791 
Q 2919 2259 2725 2515 
Q 2531 2772 2181 2772 
z
" transform="scale(0.015625)"/>
     </defs>
     <use xlink:href="#DejaVuSans-Bold-4d"/>
     <use xlink:href="#DejaVuSans-Bold-65" transform="translate(99.511719 0)"/>
     <use xlink:href="#DejaVuSans-Bold-61" transform="translate(167.333984 0)"/>
     <use xlink:href="#DejaVuSans-Bold-6e" transform="translate(234.814453 0)"/>
     <use xlink:href="#DejaVuSans-Bold-20" transform="translate(306.005859 0)"/>
     <use xlink:href="#DejaVuSans-Bold-6e" transform="translate(340.820312 0)"/>
     <use xlink:href="#DejaVuSans-Bold-65" transform="translate(412.011719 0)"/>
     <use xlink:href="#DejaVuSans-Bold-74" transform="translate(479.833984 0)"/>
     <use xlink:href="#DejaVuSans-Bold-20" transform="translate(527.636719 0)"/>
     <use xlink:href="#DejaVuSans-Bold-65" transform="translate(562.451172 0)"/>
     <use xlink:href="#DejaVuSans-Bold-64" transform="translate(630.273438 0)"/>
     <use xlink:href="#DejaVuSans-Bold-67" transform="translate(701.855469 0)"/>
     <use xlink:href="#DejaVuSans-Bold-65" transform="translate(773.4375 0)"/>
    </g>
   </g>
   <g id="legend_1">
    <g id="line2d_21">
     <path d="M 246.870997 55.075792 
L 256.870997 55.075792 
L 266.870997 55.075792 
" style="fill: none; stroke: #6b7280; stroke-width: 1.5; stroke-linecap: square"/>
     <g>
      <use xlink:href="#mba078ed1a7" x="256.870997" y="55.075792" style="fill: #6b7280; stroke: #6b7280"/>
     </g>
    </g>
    <g id="text_11">
     <!-- raw -->
     <g transform="translate(274.870997 58.575792) scale(0.1 -0.1)">
      <defs>
       <path id="DejaVuSans-77" d="M 269 3500 
L 844 3500 
L 1563 769 
L 2278 3500 
L 2956 3500 
L 3675 769 
L 4391 3500 
L 4966 3500 
L 4050 0 
L 3372 0 
L 2619 2869 
L 1863 0 
L 1184 0 
L 269 3500 
z
" transform="scale(0.015625)"/>
      </defs>
      <use xlink:href="#DejaVuSans-72"/>
      <use xlink:href="#DejaVuSans-61" transform="translate(41.113281 0)"/>
      <use xlink:href="#DejaVuSans-77" transform="translate(102.392578 0)"/>
     </g>
    </g>
    <g id="line2d_22">
     <path d="M 246.870997 69.753917 
L 256.870997 69.753917 
L 266.870997 69.753917 
" style="fill: none; stroke: #2364aa; stroke-width: 1.5; stroke-linecap: square"/>
     <g>
      <use xlink:href="#m931f7ec1a5" x="256.870997" y="69.753917" style="fill: #2364aa; stroke: #2364aa"/>
     </g>
    </g>
    <g id="text_12">
     <!-- platt -->
     <g transform="translate(274.870997 73.253917) scale(0.1 -0.1)">
      <use xlink:href="#DejaVuSans-70"/>
      <use xlink:href="#DejaVuSans-6c" transform="translate(63.476562 0)"/>
      <use xlink:href="#DejaVuSans-61" transform="translate(91.259766 0)"/>
      <use xlink:href="#DejaVuSans-74" transform="translate(152.539062 0)"/>
      <use xlink:href="#DejaVuSans-74" transform="translate(191.748047 0)"/>
     </g>
    </g>
    <g id="line2d_23">
     <path d="M 246.870997 84.432042 
L 256.870997 84.432042 
L 266.870997 84.432042 
" style="fill: none; stroke: #2a9d8f; stroke-width: 1.5; stroke-linecap: square"/>
     <g>
      <use xlink:href="#m30ecddfba6" x="256.870997" y="84.432042" style="fill: #2a9d8f; stroke: #2a9d8f"/>
     </g>
    </g>
    <g id="text_13">
     <!-- beta -->
     <g transform="translate(274.870997 87.932042) scale(0.1 -0.1)">
      <use xlink:href="#DejaVuSans-62"/>
      <use xlink:href="#DejaVuSans-65" transform="translate(63.476562 0)"/>
      <use xlink:href="#DejaVuSans-74" transform="translate(125 0)"/>
      <use xlink:href="#DejaVuSans-61" transform="translate(164.208984 0)"/>
     </g>
    </g>
    <g id="line2d_24">
     <path d="M 246.870997 99.110167 
L 256.870997 99.110167 
L 266.870997 99.110167 
" style="fill: none; stroke: #d95f02; stroke-width: 1.5; stroke-linecap: square"/>
     <g>
      <use xlink:href="#m49519cc38a" x="256.870997" y="99.110167" style="fill: #d95f02; stroke: #d95f02"/>
     </g>
    </g>
    <g id="text_14">
     <!-- isotonic -->
     <g transform="translate(274.870997 102.610167) scale(0.1 -0.1)">
      <defs>
       <path id="DejaVuSans-63" d="M 3122 3366 
L 3122 2828 
Q 2878 2963 2633 3030 
Q 2388 3097 2138 3097 
Q 1578 3097 1268 2742 
Q 959 2388 959 1747 
Q 959 1106 1268 751 
Q 1578 397 2138 397 
Q 2388 397 2633 464 
Q 2878 531 3122 666 
L 3122 134 
Q 2881 22 2623 -34 
Q 2366 -91 2075 -91 
Q 1284 -91 818 406 
Q 353 903 353 1747 
Q 353 2603 823 3093 
Q 1294 3584 2113 3584 
Q 2378 3584 2631 3529 
Q 2884 3475 3122 3366 
z
" transform="scale(0.015625)"/>
      </defs>
      <use xlink:href="#DejaVuSans-69"/>
      <use xlink:href="#DejaVuSans-73" transform="translate(27.783203 0)"/>
      <use xlink:href="#DejaVuSans-6f" transform="translate(79.882812 0)"/>
      <use xlink:href="#DejaVuSans-74" transform="translate(141.064453 0)"/>
      <use xlink:href="#DejaVuSans-6f" transform="translate(180.273438 0)"/>
      <use xlink:href="#DejaVuSans-6e" transform="translate(241.455078 0)"/>
      <use xlink:href="#DejaVuSans-69" transform="translate(304.833984 0)"/>
      <use xlink:href="#DejaVuSans-63" transform="translate(332.617188 0)"/>
     </g>
    </g>
    <g id="line2d_25">
     <path d="M 246.870997 113.788292 
L 256.870997 113.788292 
L 266.870997 113.788292 
" style="fill: none; stroke: #1f77b4; stroke-width: 1.5; stroke-linecap: square"/>
     <g>
      <use xlink:href="#m0e2b29329b" x="256.870997" y="113.788292" style="fill: #1f77b4; stroke: #1f77b4"/>
     </g>
    </g>
    <g id="text_15">
     <!-- binned_reliability -->
     <g transform="translate(274.870997 117.288292) scale(0.1 -0.1)">
      <use xlink:href="#DejaVuSans-62"/>
      <use xlink:href="#DejaVuSans-69" transform="translate(63.476562 0)"/>
      <use xlink:href="#DejaVuSans-6e" transform="translate(91.259766 0)"/>
      <use xlink:href="#DejaVuSans-6e" transform="translate(154.638672 0)"/>
      <use xlink:href="#DejaVuSans-65" transform="translate(218.017578 0)"/>
      <use xlink:href="#DejaVuSans-64" transform="translate(279.541016 0)"/>
      <use xlink:href="#DejaVuSans-5f" transform="translate(343.017578 0)"/>
      <use xlink:href="#DejaVuSans-72" transform="translate(393.017578 0)"/>
      <use xlink:href="#DejaVuSans-65" transform="translate(431.880859 0)"/>
      <use xlink:href="#DejaVuSans-6c" transform="translate(493.404297 0)"/>
      <use xlink:href="#DejaVuSans-69" transform="translate(521.1875 0)"/>
      <use xlink:href="#DejaVuSans-61" transform="translate(548.970703 0)"/>
      <use xlink:href="#DejaVuSans-62" transform="translate(610.25 0)"/>
      <use xlink:href="#DejaVuSans-69" transform="translate(673.726562 0)"/>
      <use xlink:href="#DejaVuSans-6c" transform="translate(701.509766 0)"/>
      <use xlink:href="#DejaVuSans-69" transform="translate(729.292969 0)"/>
      <use xlink:href="#DejaVuSans-74" transform="translate(757.076172 0)"/>
      <use xlink:href="#DejaVuSans-79" transform="translate(796.285156 0)"/>
     </g>
    </g>
    <g id="line2d_26">
     <path d="M 246.870997 128.744542 
L 256.870997 128.744542 
L 266.870997 128.744542 
" style="fill: none; stroke: #ff7f0e; stroke-width: 1.5; stroke-linecap: square"/>
     <g>
      <use xlink:href="#m98c6121075" x="256.870997" y="128.744542" style="fill: #ff7f0e; stroke: #ff7f0e"/>
     </g>
    </g>
    <g id="text_16">
     <!-- hierarchical_eb -->
     <g transform="translate(274.870997 132.244542) scale(0.1 -0.1)">
      <defs>
       <path id="DejaVuSans-68" d="M 3513 2113 
L 3513 0 
L 2938 0 
L 2938 2094 
Q 2938 2591 2744 2837 
Q 2550 3084 2163 3084 
Q 1697 3084 1428 2787 
Q 1159 2491 1159 1978 
L 1159 0 
L 581 0 
L 581 4863 
L 1159 4863 
L 1159 2956 
Q 1366 3272 1645 3428 
Q 1925 3584 2291 3584 
Q 2894 3584 3203 3211 
Q 3513 2838 3513 2113 
z
" transform="scale(0.015625)"/>
      </defs>
      <use xlink:href="#DejaVuSans-68"/>
      <use xlink:href="#DejaVuSans-69" transform="translate(63.378906 0)"/>
      <use xlink:href="#DejaVuSans-65" transform="translate(91.162109 0)"/>
      <use xlink:href="#DejaVuSans-72" transform="translate(152.685547 0)"/>
      <use xlink:href="#DejaVuSans-61" transform="translate(193.798828 0)"/>
      <use xlink:href="#DejaVuSans-72" transform="translate(255.078125 0)"/>
      <use xlink:href="#DejaVuSans-63" transform="translate(293.941406 0)"/>
      <use xlink:href="#DejaVuSans-68" transform="translate(348.921875 0)"/>
      <use xlink:href="#DejaVuSans-69" transform="translate(412.300781 0)"/>
      <use xlink:href="#DejaVuSans-63" transform="translate(440.083984 0)"/>
      <use xlink:href="#DejaVuSans-61" transform="translate(495.064453 0)"/>
      <use xlink:href="#DejaVuSans-6c" transform="translate(556.34375 0)"/>
      <use xlink:href="#DejaVuSans-5f" transform="translate(584.126953 0)"/>
      <use xlink:href="#DejaVuSans-65" transform="translate(634.126953 0)"/>
      <use xlink:href="#DejaVuSans-62" transform="translate(695.650391 0)"/>
     </g>
    </g>
   </g>
  </g>
  <g id="axes_2">
   <g id="patch_5">
    <path d="M 448.112104 251.672332 
L 759.008101 251.672332 
L 759.008101 41.977355 
L 448.112104 41.977355 
z
" style="fill: #ffffff"/>
   </g>
   <g id="matplotlib.axis_3">
    <g id="xtick_4">
     <g id="line2d_27">
      <g>
       <use xlink:href="#ma813f02440" x="462.24374" y="251.672332" style="stroke: #000000; stroke-width: 0.8"/>
      </g>
     </g>
     <g id="text_17">
      <!-- fee_only -->
      <g transform="translate(444.327873 283.300238) rotate(-25) scale(0.1 -0.1)">
       <use xlink:href="#DejaVuSans-66"/>
       <use xlink:href="#DejaVuSans-65" transform="translate(35.205078 0)"/>
       <use xlink:href="#DejaVuSans-65" transform="translate(96.728516 0)"/>
       <use xlink:href="#DejaVuSans-5f" transform="translate(158.251953 0)"/>
       <use xlink:href="#DejaVuSans-6f" transform="translate(208.251953 0)"/>
       <use xlink:href="#DejaVuSans-6e" transform="translate(269.433594 0)"/>
       <use xlink:href="#DejaVuSans-6c" transform="translate(332.8125 0)"/>
       <use xlink:href="#DejaVuSans-79" transform="translate(360.595703 0)"/>
      </g>
     </g>
    </g>
    <g id="xtick_5">
     <g id="line2d_28">
      <g>
       <use xlink:href="#ma813f02440" x="603.560102" y="251.672332" style="stroke: #000000; stroke-width: 0.8"/>
      </g>
     </g>
     <g id="text_18">
      <!-- fee_spread -->
      <g transform="translate(579.789345 288.760598) rotate(-25) scale(0.1 -0.1)">
       <use xlink:href="#DejaVuSans-66"/>
       <use xlink:href="#DejaVuSans-65" transform="translate(35.205078 0)"/>
       <use xlink:href="#DejaVuSans-65" transform="translate(96.728516 0)"/>
       <use xlink:href="#DejaVuSans-5f" transform="translate(158.251953 0)"/>
       <use xlink:href="#DejaVuSans-73" transform="translate(208.251953 0)"/>
       <use xlink:href="#DejaVuSans-70" transform="translate(260.351562 0)"/>
       <use xlink:href="#DejaVuSans-72" transform="translate(323.828125 0)"/>
       <use xlink:href="#DejaVuSans-65" transform="translate(362.691406 0)"/>
       <use xlink:href="#DejaVuSans-61" transform="translate(424.214844 0)"/>
       <use xlink:href="#DejaVuSans-64" transform="translate(485.494141 0)"/>
      </g>
     </g>
    </g>
    <g id="xtick_6">
     <g id="line2d_29">
      <g>
       <use xlink:href="#ma813f02440" x="744.876464" y="251.672332" style="stroke: #000000; stroke-width: 0.8"/>
      </g>
     </g>
     <g id="text_19">
      <!-- fee_spread_slippage -->
      <g transform="translate(699.765699 308.662616) rotate(-25) scale(0.1 -0.1)">
       <use xlink:href="#DejaVuSans-66"/>
       <use xlink:href="#DejaVuSans-65" transform="translate(35.205078 0)"/>
       <use xlink:href="#DejaVuSans-65" transform="translate(96.728516 0)"/>
       <use xlink:href="#DejaVuSans-5f" transform="translate(158.251953 0)"/>
       <use xlink:href="#DejaVuSans-73" transform="translate(208.251953 0)"/>
       <use xlink:href="#DejaVuSans-70" transform="translate(260.351562 0)"/>
       <use xlink:href="#DejaVuSans-72" transform="translate(323.828125 0)"/>
       <use xlink:href="#DejaVuSans-65" transform="translate(362.691406 0)"/>
       <use xlink:href="#DejaVuSans-61" transform="translate(424.214844 0)"/>
       <use xlink:href="#DejaVuSans-64" transform="translate(485.494141 0)"/>
       <use xlink:href="#DejaVuSans-5f" transform="translate(548.970703 0)"/>
       <use xlink:href="#DejaVuSans-73" transform="translate(598.970703 0)"/>
       <use xlink:href="#DejaVuSans-6c" transform="translate(651.070312 0)"/>
       <use xlink:href="#DejaVuSans-69" transform="translate(678.853516 0)"/>
       <use xlink:href="#DejaVuSans-70" transform="translate(706.636719 0)"/>
       <use xlink:href="#DejaVuSans-70" transform="translate(770.113281 0)"/>
       <use xlink:href="#DejaVuSans-61" transform="translate(833.589844 0)"/>
       <use xlink:href="#DejaVuSans-67" transform="translate(894.869141 0)"/>
       <use xlink:href="#DejaVuSans-65" transform="translate(958.345703 0)"/>
      </g>
     </g>
    </g>
   </g>
   <g id="matplotlib.axis_4">
    <g id="ytick_6">
     <g id="line2d_30">
      <path d="M 448.112104 242.140742 
L 759.008101 242.140742 
" clip-path="url(#p22ad13ea7d)" style="fill: none; stroke: #e5e7eb; stroke-width: 0.8; stroke-linecap: square"/>
     </g>
     <g id="line2d_31">
      <g>
       <use xlink:href="#me9fbf7e120" x="448.112104" y="242.140742" style="stroke: #000000; stroke-width: 0.8"/>
      </g>
     </g>
     <g id="text_20">
      <!-- 0.0 -->
      <g transform="translate(425.208979 245.939961) scale(0.1 -0.1)">
       <use xlink:href="#DejaVuSans-30"/>
       <use xlink:href="#DejaVuSans-2e" transform="translate(63.623047 0)"/>
       <use xlink:href="#DejaVuSans-30" transform="translate(95.410156 0)"/>
      </g>
     </g>
    </g>
    <g id="ytick_7">
     <g id="line2d_32">
      <path d="M 448.112104 205.188891 
L 759.008101 205.188891 
" clip-path="url(#p22ad13ea7d)" style="fill: none; stroke: #e5e7eb; stroke-width: 0.8; stroke-linecap: square"/>
     </g>
     <g id="line2d_33">
      <g>
       <use xlink:href="#me9fbf7e120" x="448.112104" y="205.188891" style="stroke: #000000; stroke-width: 0.8"/>
      </g>
     </g>
     <g id="text_21">
      <!-- 0.1 -->
      <g transform="translate(425.208979 208.98811) scale(0.1 -0.1)">
       <defs>
        <path id="DejaVuSans-31" d="M 794 531 
L 1825 531 
L 1825 4091 
L 703 3866 
L 703 4441 
L 1819 4666 
L 2450 4666 
L 2450 531 
L 3481 531 
L 3481 0 
L 794 0 
L 794 531 
z
" transform="scale(0.015625)"/>
       </defs>
       <use xlink:href="#DejaVuSans-30"/>
       <use xlink:href="#DejaVuSans-2e" transform="translate(63.623047 0)"/>
       <use xlink:href="#DejaVuSans-31" transform="translate(95.410156 0)"/>
      </g>
     </g>
    </g>
    <g id="ytick_8">
     <g id="line2d_34">
      <path d="M 448.112104 168.237041 
L 759.008101 168.237041 
" clip-path="url(#p22ad13ea7d)" style="fill: none; stroke: #e5e7eb; stroke-width: 0.8; stroke-linecap: square"/>
     </g>
     <g id="line2d_35">
      <g>
       <use xlink:href="#me9fbf7e120" x="448.112104" y="168.237041" style="stroke: #000000; stroke-width: 0.8"/>
      </g>
     </g>
     <g id="text_22">
      <!-- 0.2 -->
      <g transform="translate(425.208979 172.036259) scale(0.1 -0.1)">
       <use xlink:href="#DejaVuSans-30"/>
       <use xlink:href="#DejaVuSans-2e" transform="translate(63.623047 0)"/>
       <use xlink:href="#DejaVuSans-32" transform="translate(95.410156 0)"/>
      </g>
     </g>
    </g>
    <g id="ytick_9">
     <g id="line2d_36">
      <path d="M 448.112104 131.28519 
L 759.008101 131.28519 
" clip-path="url(#p22ad13ea7d)" style="fill: none; stroke: #e5e7eb; stroke-width: 0.8; stroke-linecap: square"/>
     </g>
     <g id="line2d_37">
      <g>
       <use xlink:href="#me9fbf7e120" x="448.112104" y="131.28519" style="stroke: #000000; stroke-width: 0.8"/>
      </g>
     </g>
     <g id="text_23">
      <!-- 0.3 -->
      <g transform="translate(425.208979 135.084409) scale(0.1 -0.1)">
       <defs>
        <path id="DejaVuSans-33" d="M 2597 2516 
Q 3050 2419 3304 2112 
Q 3559 1806 3559 1356 
Q 3559 666 3084 287 
Q 2609 -91 1734 -91 
Q 1441 -91 1130 -33 
Q 819 25 488 141 
L 488 750 
Q 750 597 1062 519 
Q 1375 441 1716 441 
Q 2309 441 2620 675 
Q 2931 909 2931 1356 
Q 2931 1769 2642 2001 
Q 2353 2234 1838 2234 
L 1294 2234 
L 1294 2753 
L 1863 2753 
Q 2328 2753 2575 2939 
Q 2822 3125 2822 3475 
Q 2822 3834 2567 4026 
Q 2313 4219 1838 4219 
Q 1578 4219 1281 4162 
Q 984 4106 628 3988 
L 628 4550 
Q 988 4650 1302 4700 
Q 1616 4750 1894 4750 
Q 2613 4750 3031 4423 
Q 3450 4097 3450 3541 
Q 3450 3153 3228 2886 
Q 3006 2619 2597 2516 
z
" transform="scale(0.015625)"/>
       </defs>
       <use xlink:href="#DejaVuSans-30"/>
       <use xlink:href="#DejaVuSans-2e" transform="translate(63.623047 0)"/>
       <use xlink:href="#DejaVuSans-33" transform="translate(95.410156 0)"/>
      </g>
     </g>
    </g>
    <g id="ytick_10">
     <g id="line2d_38">
      <path d="M 448.112104 94.333339 
L 759.008101 94.333339 
" clip-path="url(#p22ad13ea7d)" style="fill: none; stroke: #e5e7eb; stroke-width: 0.8; stroke-linecap: square"/>
     </g>
     <g id="line2d_39">
      <g>
       <use xlink:href="#me9fbf7e120" x="448.112104" y="94.333339" style="stroke: #000000; stroke-width: 0.8"/>
      </g>
     </g>
     <g id="text_24">
      <!-- 0.4 -->
      <g transform="translate(425.208979 98.132558) scale(0.1 -0.1)">
       <use xlink:href="#DejaVuSans-30"/>
       <use xlink:href="#DejaVuSans-2e" transform="translate(63.623047 0)"/>
       <use xlink:href="#DejaVuSans-34" transform="translate(95.410156 0)"/>
      </g>
     </g>
    </g>
    <g id="ytick_11">
     <g id="line2d_40">
      <path d="M 448.112104 57.381488 
L 759.008101 57.381488 
" clip-path="url(#p22ad13ea7d)" style="fill: none; stroke: #e5e7eb; stroke-width: 0.8; stroke-linecap: square"/>
     </g>
     <g id="line2d_41">
      <g>
       <use xlink:href="#me9fbf7e120" x="448.112104" y="57.381488" style="stroke: #000000; stroke-width: 0.8"/>
      </g>
     </g>
     <g id="text_25">
      <!-- 0.5 -->
      <g transform="translate(425.208979 61.180707) scale(0.1 -0.1)">
       <defs>
        <path id="DejaVuSans-35" d="M 691 4666 
L 3169 4666 
L 3169 4134 
L 1269 4134 
L 1269 2991 
Q 1406 3038 1543 3061 
Q 1681 3084 1819 3084 
Q 2600 3084 3056 2656 
Q 3513 2228 3513 1497 
Q 3513 744 3044 326 
Q 2575 -91 1722 -91 
Q 1428 -91 1123 -41 
Q 819 9 494 109 
L 494 744 
Q 775 591 1075 516 
Q 1375 441 1709 441 
Q 2250 441 2565 725 
Q 2881 1009 2881 1497 
Q 2881 1984 2565 2268 
Q 2250 2553 1709 2553 
Q 1456 2553 1204 2497 
Q 953 2441 691 2322 
L 691 4666 
z
" transform="scale(0.015625)"/>
       </defs>
       <use xlink:href="#DejaVuSans-30"/>
       <use xlink:href="#DejaVuSans-2e" transform="translate(63.623047 0)"/>
       <use xlink:href="#DejaVuSans-35" transform="translate(95.410156 0)"/>
      </g>
     </g>
    </g>
    <g id="text_26">
     <!-- Share -->
     <g transform="translate(419.129291 161.251406) rotate(-90) scale(0.1 -0.1)">
      <defs>
       <path id="DejaVuSans-53" d="M 3425 4513 
L 3425 3897 
Q 3066 4069 2747 4153 
Q 2428 4238 2131 4238 
Q 1616 4238 1336 4038 
Q 1056 3838 1056 3469 
Q 1056 3159 1242 3001 
Q 1428 2844 1947 2747 
L 2328 2669 
Q 3034 2534 3370 2195 
Q 3706 1856 3706 1288 
Q 3706 609 3251 259 
Q 2797 -91 1919 -91 
Q 1588 -91 1214 -16 
Q 841 59 441 206 
L 441 856 
Q 825 641 1194 531 
Q 1563 422 1919 422 
Q 2459 422 2753 634 
Q 3047 847 3047 1241 
Q 3047 1584 2836 1778 
Q 2625 1972 2144 2069 
L 1759 2144 
Q 1053 2284 737 2584 
Q 422 2884 422 3419 
Q 422 4038 858 4394 
Q 1294 4750 2059 4750 
Q 2388 4750 2728 4690 
Q 3069 4631 3425 4513 
z
" transform="scale(0.015625)"/>
      </defs>
      <use xlink:href="#DejaVuSans-53"/>
      <use xlink:href="#DejaVuSans-68" transform="translate(63.476562 0)"/>
      <use xlink:href="#DejaVuSans-61" transform="translate(126.855469 0)"/>
      <use xlink:href="#DejaVuSans-72" transform="translate(188.134766 0)"/>
      <use xlink:href="#DejaVuSans-65" transform="translate(226.998047 0)"/>
     </g>
    </g>
   </g>
   <g id="line2d_42">
    <path d="M 462.24374 242.140742 
L 603.560102 242.140742 
L 744.876464 242.140742 
" clip-path="url(#p22ad13ea7d)" style="fill: none; stroke: #6b7280; stroke-width: 1.5; stroke-linecap: square"/>
    <g clip-path="url(#p22ad13ea7d)">
     <use xlink:href="#mba078ed1a7" x="462.24374" y="242.140742" style="fill: #6b7280; stroke: #6b7280"/>
     <use xlink:href="#mba078ed1a7" x="603.560102" y="242.140742" style="fill: #6b7280; stroke: #6b7280"/>
     <use xlink:href="#mba078ed1a7" x="744.876464" y="242.140742" style="fill: #6b7280; stroke: #6b7280"/>
    </g>
   </g>
   <g id="line2d_43">
    <path d="M 462.24374 242.140742 
L 603.560102 242.140742 
L 744.876464 242.140742 
" clip-path="url(#p22ad13ea7d)" style="fill: none; stroke: #2364aa; stroke-width: 1.5; stroke-linecap: square"/>
    <g clip-path="url(#p22ad13ea7d)">
     <use xlink:href="#m931f7ec1a5" x="462.24374" y="242.140742" style="fill: #2364aa; stroke: #2364aa"/>
     <use xlink:href="#m931f7ec1a5" x="603.560102" y="242.140742" style="fill: #2364aa; stroke: #2364aa"/>
     <use xlink:href="#m931f7ec1a5" x="744.876464" y="242.140742" style="fill: #2364aa; stroke: #2364aa"/>
    </g>
   </g>
   <g id="line2d_44">
    <path d="M 462.24374 242.140742 
L 603.560102 242.140742 
L 744.876464 242.140742 
" clip-path="url(#p22ad13ea7d)" style="fill: none; stroke: #2a9d8f; stroke-width: 1.5; stroke-linecap: square"/>
    <g clip-path="url(#p22ad13ea7d)">
     <use xlink:href="#m30ecddfba6" x="462.24374" y="242.140742" style="fill: #2a9d8f; stroke: #2a9d8f"/>
     <use xlink:href="#m30ecddfba6" x="603.560102" y="242.140742" style="fill: #2a9d8f; stroke: #2a9d8f"/>
     <use xlink:href="#m30ecddfba6" x="744.876464" y="242.140742" style="fill: #2a9d8f; stroke: #2a9d8f"/>
    </g>
   </g>
   <g id="line2d_45">
    <path d="M 462.24374 190.643053 
L 603.560102 192.449989 
L 744.876464 195.160394 
" clip-path="url(#p22ad13ea7d)" style="fill: none; stroke: #d95f02; stroke-width: 1.5; stroke-linecap: square"/>
    <g clip-path="url(#p22ad13ea7d)">
     <use xlink:href="#m49519cc38a" x="462.24374" y="190.643053" style="fill: #d95f02; stroke: #d95f02"/>
     <use xlink:href="#m49519cc38a" x="603.560102" y="192.449989" style="fill: #d95f02; stroke: #d95f02"/>
     <use xlink:href="#m49519cc38a" x="744.876464" y="195.160394" style="fill: #d95f02; stroke: #d95f02"/>
    </g>
   </g>
   <g id="line2d_46">
    <path d="M 462.24374 225.878314 
L 603.560102 232.202592 
L 744.876464 232.202592 
" clip-path="url(#p22ad13ea7d)" style="fill: none; stroke: #1f77b4; stroke-width: 1.5; stroke-linecap: square"/>
    <g clip-path="url(#p22ad13ea7d)">
     <use xlink:href="#m0e2b29329b" x="462.24374" y="225.878314" style="fill: #1f77b4; stroke: #1f77b4"/>
     <use xlink:href="#m0e2b29329b" x="603.560102" y="232.202592" style="fill: #1f77b4; stroke: #1f77b4"/>
     <use xlink:href="#m0e2b29329b" x="744.876464" y="232.202592" style="fill: #1f77b4; stroke: #1f77b4"/>
    </g>
   </g>
   <g id="line2d_47">
    <path d="M 462.24374 51.508945 
L 603.560102 70.481778 
L 744.876464 83.130333 
" clip-path="url(#p22ad13ea7d)" style="fill: none; stroke: #ff7f0e; stroke-width: 1.5; stroke-linecap: square"/>
    <g clip-path="url(#p22ad13ea7d)">
     <use xlink:href="#m98c6121075" x="462.24374" y="51.508945" style="fill: #ff7f0e; stroke: #ff7f0e"/>
     <use xlink:href="#m98c6121075" x="603.560102" y="70.481778" style="fill: #ff7f0e; stroke: #ff7f0e"/>
     <use xlink:href="#m98c6121075" x="744.876464" y="83.130333" style="fill: #ff7f0e; stroke: #ff7f0e"/>
    </g>
   </g>
   <g id="patch_6">
    <path d="M 448.112104 251.672332 
L 448.112104 41.977355 
" style="fill: none; stroke: #000000; stroke-width: 0.8; stroke-linejoin: miter; stroke-linecap: square"/>
   </g>
   <g id="patch_7">
    <path d="M 448.112104 251.672332 
L 759.008101 251.672332 
" style="fill: none; stroke: #000000; stroke-width: 0.8; stroke-linejoin: miter; stroke-linecap: square"/>
   </g>
   <g id="text_27">
    <!-- Share passing threshold -->
    <g transform="translate(521.12104 35.977355) scale(0.12 -0.12)">
     <defs>
      <path id="DejaVuSans-Bold-53" d="M 3834 4519 
L 3834 3531 
Q 3450 3703 3084 3790 
Q 2719 3878 2394 3878 
Q 1963 3878 1756 3759 
Q 1550 3641 1550 3391 
Q 1550 3203 1689 3098 
Q 1828 2994 2194 2919 
L 2706 2816 
Q 3484 2659 3812 2340 
Q 4141 2022 4141 1434 
Q 4141 663 3683 286 
Q 3225 -91 2284 -91 
Q 1841 -91 1394 -6 
Q 947 78 500 244 
L 500 1259 
Q 947 1022 1364 901 
Q 1781 781 2169 781 
Q 2563 781 2772 912 
Q 2981 1044 2981 1288 
Q 2981 1506 2839 1625 
Q 2697 1744 2272 1838 
L 1806 1941 
Q 1106 2091 782 2419 
Q 459 2747 459 3303 
Q 459 4000 909 4375 
Q 1359 4750 2203 4750 
Q 2588 4750 2994 4692 
Q 3400 4634 3834 4519 
z
" transform="scale(0.015625)"/>
      <path id="DejaVuSans-Bold-68" d="M 4056 2131 
L 4056 0 
L 2931 0 
L 2931 347 
L 2931 1625 
Q 2931 2084 2911 2256 
Q 2891 2428 2841 2509 
Q 2775 2619 2662 2680 
Q 2550 2741 2406 2741 
Q 2056 2741 1856 2470 
Q 1656 2200 1656 1722 
L 1656 0 
L 538 0 
L 538 4863 
L 1656 4863 
L 1656 2988 
Q 1909 3294 2193 3439 
Q 2478 3584 2822 3584 
Q 3428 3584 3742 3212 
Q 4056 2841 4056 2131 
z
" transform="scale(0.015625)"/>
      <path id="DejaVuSans-Bold-72" d="M 3138 2547 
Q 2991 2616 2845 2648 
Q 2700 2681 2553 2681 
Q 2122 2681 1889 2404 
Q 1656 2128 1656 1613 
L 1656 0 
L 538 0 
L 538 3500 
L 1656 3500 
L 1656 2925 
Q 1872 3269 2151 3426 
Q 2431 3584 2822 3584 
Q 2878 3584 2943 3579 
Q 3009 3575 3134 3559 
L 3138 2547 
z
" transform="scale(0.015625)"/>
      <path id="DejaVuSans-Bold-70" d="M 1656 506 
L 1656 -1331 
L 538 -1331 
L 538 3500 
L 1656 3500 
L 1656 2988 
Q 1888 3294 2169 3439 
Q 2450 3584 2816 3584 
Q 3463 3584 3878 3070 
Q 4294 2556 4294 1747 
Q 4294 938 3878 423 
Q 3463 -91 2816 -91 
Q 2450 -91 2169 54 
Q 1888 200 1656 506 
z
M 2400 2772 
Q 2041 2772 1848 2508 
Q 1656 2244 1656 1747 
Q 1656 1250 1848 986 
Q 2041 722 2400 722 
Q 2759 722 2948 984 
Q 3138 1247 3138 1747 
Q 3138 2247 2948 2509 
Q 2759 2772 2400 2772 
z
" transform="scale(0.015625)"/>
      <path id="DejaVuSans-Bold-73" d="M 3272 3391 
L 3272 2541 
Q 2913 2691 2578 2766 
Q 2244 2841 1947 2841 
Q 1628 2841 1473 2761 
Q 1319 2681 1319 2516 
Q 1319 2381 1436 2309 
Q 1553 2238 1856 2203 
L 2053 2175 
Q 2913 2066 3209 1816 
Q 3506 1566 3506 1031 
Q 3506 472 3093 190 
Q 2681 -91 1863 -91 
Q 1516 -91 1145 -36 
Q 775 19 384 128 
L 384 978 
Q 719 816 1070 734 
Q 1422 653 1784 653 
Q 2113 653 2278 743 
Q 2444 834 2444 1013 
Q 2444 1163 2330 1236 
Q 2216 1309 1875 1350 
L 1678 1375 
Q 931 1469 631 1722 
Q 331 1975 331 2491 
Q 331 3047 712 3315 
Q 1094 3584 1881 3584 
Q 2191 3584 2531 3537 
Q 2872 3491 3272 3391 
z
" transform="scale(0.015625)"/>
      <path id="DejaVuSans-Bold-69" d="M 538 3500 
L 1656 3500 
L 1656 0 
L 538 0 
L 538 3500 
z
M 538 4863 
L 1656 4863 
L 1656 3950 
L 538 3950 
L 538 4863 
z
" transform="scale(0.015625)"/>
      <path id="DejaVuSans-Bold-6f" d="M 2203 2784 
Q 1831 2784 1636 2517 
Q 1441 2250 1441 1747 
Q 1441 1244 1636 976 
Q 1831 709 2203 709 
Q 2569 709 2762 976 
Q 2956 1244 2956 1747 
Q 2956 2250 2762 2517 
Q 2569 2784 2203 2784 
z
M 2203 3584 
Q 3106 3584 3614 3096 
Q 4122 2609 4122 1747 
Q 4122 884 3614 396 
Q 3106 -91 2203 -91 
Q 1297 -91 786 396 
Q 275 884 275 1747 
Q 275 2609 786 3096 
Q 1297 3584 2203 3584 
z
" transform="scale(0.015625)"/>
      <path id="DejaVuSans-Bold-6c" d="M 538 4863 
L 1656 4863 
L 1656 0 
L 538 0 
L 538 4863 
z
" transform="scale(0.015625)"/>
     </defs>
     <use xlink:href="#DejaVuSans-Bold-53"/>
     <use xlink:href="#DejaVuSans-Bold-68" transform="translate(72.021484 0)"/>
     <use xlink:href="#DejaVuSans-Bold-61" transform="translate(143.212891 0)"/>
     <use xlink:href="#DejaVuSans-Bold-72" transform="translate(210.693359 0)"/>
     <use xlink:href="#DejaVuSans-Bold-65" transform="translate(260.009766 0)"/>
     <use xlink:href="#DejaVuSans-Bold-20" transform="translate(327.832031 0)"/>
     <use xlink:href="#DejaVuSans-Bold-70" transform="translate(362.646484 0)"/>
     <use xlink:href="#DejaVuSans-Bold-61" transform="translate(434.228516 0)"/>
     <use xlink:href="#DejaVuSans-Bold-73" transform="translate(501.708984 0)"/>
     <use xlink:href="#DejaVuSans-Bold-73" transform="translate(561.230469 0)"/>
     <use xlink:href="#DejaVuSans-Bold-69" transform="translate(620.751953 0)"/>
     <use xlink:href="#DejaVuSans-Bold-6e" transform="translate(655.029297 0)"/>
     <use xlink:href="#DejaVuSans-Bold-67" transform="translate(726.220703 0)"/>
     <use xlink:href="#DejaVuSans-Bold-20" transform="translate(797.802734 0)"/>
     <use xlink:href="#DejaVuSans-Bold-74" transform="translate(832.617188 0)"/>
     <use xlink:href="#DejaVuSans-Bold-68" transform="translate(880.419922 0)"/>
     <use xlink:href="#DejaVuSans-Bold-72" transform="translate(951.611328 0)"/>
     <use xlink:href="#DejaVuSans-Bold-65" transform="translate(1000.927734 0)"/>
     <use xlink:href="#DejaVuSans-Bold-73" transform="translate(1068.75 0)"/>
     <use xlink:href="#DejaVuSans-Bold-68" transform="translate(1128.271484 0)"/>
     <use xlink:href="#DejaVuSans-Bold-6f" transform="translate(1199.462891 0)"/>
     <use xlink:href="#DejaVuSans-Bold-6c" transform="translate(1268.164062 0)"/>
     <use xlink:href="#DejaVuSans-Bold-64" transform="translate(1302.441406 0)"/>
    </g>
   </g>
   <g id="legend_2">
    <g id="line2d_48">
     <path d="M 636.459663 109.110781 
L 646.459663 109.110781 
L 656.459663 109.110781 
" style="fill: none; stroke: #6b7280; stroke-width: 1.5; stroke-linecap: square"/>
     <g>
      <use xlink:href="#mba078ed1a7" x="646.459663" y="109.110781" style="fill: #6b7280; stroke: #6b7280"/>
     </g>
    </g>
    <g id="text_28">
     <!-- raw -->
     <g transform="translate(664.459663 112.610781) scale(0.1 -0.1)">
      <use xlink:href="#DejaVuSans-72"/>
      <use xlink:href="#DejaVuSans-61" transform="translate(41.113281 0)"/>
      <use xlink:href="#DejaVuSans-77" transform="translate(102.392578 0)"/>
     </g>
    </g>
    <g id="line2d_49">
     <path d="M 636.459663 123.788906 
L 646.459663 123.788906 
L 656.459663 123.788906 
" style="fill: none; stroke: #2364aa; stroke-width: 1.5; stroke-linecap: square"/>
     <g>
      <use xlink:href="#m931f7ec1a5" x="646.459663" y="123.788906" style="fill: #2364aa; stroke: #2364aa"/>
     </g>
    </g>
    <g id="text_29">
     <!-- platt -->
     <g transform="translate(664.459663 127.288906) scale(0.1 -0.1)">
      <use xlink:href="#DejaVuSans-70"/>
      <use xlink:href="#DejaVuSans-6c" transform="translate(63.476562 0)"/>
      <use xlink:href="#DejaVuSans-61" transform="translate(91.259766 0)"/>
      <use xlink:href="#DejaVuSans-74" transform="translate(152.539062 0)"/>
      <use xlink:href="#DejaVuSans-74" transform="translate(191.748047 0)"/>
     </g>
    </g>
    <g id="line2d_50">
     <path d="M 636.459663 138.467031 
L 646.459663 138.467031 
L 656.459663 138.467031 
" style="fill: none; stroke: #2a9d8f; stroke-width: 1.5; stroke-linecap: square"/>
     <g>
      <use xlink:href="#m30ecddfba6" x="646.459663" y="138.467031" style="fill: #2a9d8f; stroke: #2a9d8f"/>
     </g>
    </g>
    <g id="text_30">
     <!-- beta -->
     <g transform="translate(664.459663 141.967031) scale(0.1 -0.1)">
      <use xlink:href="#DejaVuSans-62"/>
      <use xlink:href="#DejaVuSans-65" transform="translate(63.476562 0)"/>
      <use xlink:href="#DejaVuSans-74" transform="translate(125 0)"/>
      <use xlink:href="#DejaVuSans-61" transform="translate(164.208984 0)"/>
     </g>
    </g>
    <g id="line2d_51">
     <path d="M 636.459663 153.145156 
L 646.459663 153.145156 
L 656.459663 153.145156 
" style="fill: none; stroke: #d95f02; stroke-width: 1.5; stroke-linecap: square"/>
     <g>
      <use xlink:href="#m49519cc38a" x="646.459663" y="153.145156" style="fill: #d95f02; stroke: #d95f02"/>
     </g>
    </g>
    <g id="text_31">
     <!-- isotonic -->
     <g transform="translate(664.459663 156.645156) scale(0.1 -0.1)">
      <use xlink:href="#DejaVuSans-69"/>
      <use xlink:href="#DejaVuSans-73" transform="translate(27.783203 0)"/>
      <use xlink:href="#DejaVuSans-6f" transform="translate(79.882812 0)"/>
      <use xlink:href="#DejaVuSans-74" transform="translate(141.064453 0)"/>
      <use xlink:href="#DejaVuSans-6f" transform="translate(180.273438 0)"/>
      <use xlink:href="#DejaVuSans-6e" transform="translate(241.455078 0)"/>
      <use xlink:href="#DejaVuSans-69" transform="translate(304.833984 0)"/>
      <use xlink:href="#DejaVuSans-63" transform="translate(332.617188 0)"/>
     </g>
    </g>
    <g id="line2d_52">
     <path d="M 636.459663 167.823281 
L 646.459663 167.823281 
L 656.459663 167.823281 
" style="fill: none; stroke: #1f77b4; stroke-width: 1.5; stroke-linecap: square"/>
     <g>
      <use xlink:href="#m0e2b29329b" x="646.459663" y="167.823281" style="fill: #1f77b4; stroke: #1f77b4"/>
     </g>
    </g>
    <g id="text_32">
     <!-- binned_reliability -->
     <g transform="translate(664.459663 171.323281) scale(0.1 -0.1)">
      <use xlink:href="#DejaVuSans-62"/>
      <use xlink:href="#DejaVuSans-69" transform="translate(63.476562 0)"/>
      <use xlink:href="#DejaVuSans-6e" transform="translate(91.259766 0)"/>
      <use xlink:href="#DejaVuSans-6e" transform="translate(154.638672 0)"/>
      <use xlink:href="#DejaVuSans-65" transform="translate(218.017578 0)"/>
      <use xlink:href="#DejaVuSans-64" transform="translate(279.541016 0)"/>
      <use xlink:href="#DejaVuSans-5f" transform="translate(343.017578 0)"/>
      <use xlink:href="#DejaVuSans-72" transform="translate(393.017578 0)"/>
      <use xlink:href="#DejaVuSans-65" transform="translate(431.880859 0)"/>
      <use xlink:href="#DejaVuSans-6c" transform="translate(493.404297 0)"/>
      <use xlink:href="#DejaVuSans-69" transform="translate(521.1875 0)"/>
      <use xlink:href="#DejaVuSans-61" transform="translate(548.970703 0)"/>
      <use xlink:href="#DejaVuSans-62" transform="translate(610.25 0)"/>
      <use xlink:href="#DejaVuSans-69" transform="translate(673.726562 0)"/>
      <use xlink:href="#DejaVuSans-6c" transform="translate(701.509766 0)"/>
      <use xlink:href="#DejaVuSans-69" transform="translate(729.292969 0)"/>
      <use xlink:href="#DejaVuSans-74" transform="translate(757.076172 0)"/>
      <use xlink:href="#DejaVuSans-79" transform="translate(796.285156 0)"/>
     </g>
    </g>
    <g id="line2d_53">
     <path d="M 636.459663 182.779531 
L 646.459663 182.779531 
L 656.459663 182.779531 
" style="fill: none; stroke: #ff7f0e; stroke-width: 1.5; stroke-linecap: square"/>
     <g>
      <use xlink:href="#m98c6121075" x="646.459663" y="182.779531" style="fill: #ff7f0e; stroke: #ff7f0e"/>
     </g>
    </g>
    <g id="text_33">
     <!-- hierarchical_eb -->
     <g transform="translate(664.459663 186.279531) scale(0.1 -0.1)">
      <use xlink:href="#DejaVuSans-68"/>
      <use xlink:href="#DejaVuSans-69" transform="translate(63.378906 0)"/>
      <use xlink:href="#DejaVuSans-65" transform="translate(91.162109 0)"/>
      <use xlink:href="#DejaVuSans-72" transform="translate(152.685547 0)"/>
      <use xlink:href="#DejaVuSans-61" transform="translate(193.798828 0)"/>
      <use xlink:href="#DejaVuSans-72" transform="translate(255.078125 0)"/>
      <use xlink:href="#DejaVuSans-63" transform="translate(293.941406 0)"/>
      <use xlink:href="#DejaVuSans-68" transform="translate(348.921875 0)"/>
      <use xlink:href="#DejaVuSans-69" transform="translate(412.300781 0)"/>
      <use xlink:href="#DejaVuSans-63" transform="translate(440.083984 0)"/>
      <use xlink:href="#DejaVuSans-61" transform="translate(495.064453 0)"/>
      <use xlink:href="#DejaVuSans-6c" transform="translate(556.34375 0)"/>
      <use xlink:href="#DejaVuSans-5f" transform="translate(584.126953 0)"/>
      <use xlink:href="#DejaVuSans-65" transform="translate(634.126953 0)"/>
      <use xlink:href="#DejaVuSans-62" transform="translate(695.650391 0)"/>
     </g>
    </g>
   </g>
  </g>
  <g id="text_34">
   <!-- Edge Sensitivity to Conservative Friction Tiers -->
   <g transform="translate(217.299604 17.837812) scale(0.14 -0.14)">
    <defs>
     <path id="DejaVuSans-Bold-45" d="M 588 4666 
L 3834 4666 
L 3834 3756 
L 1791 3756 
L 1791 2888 
L 3713 2888 
L 3713 1978 
L 1791 1978 
L 1791 909 
L 3903 909 
L 3903 0 
L 588 0 
L 588 4666 
z
" transform="scale(0.015625)"/>
     <path id="DejaVuSans-Bold-76" d="M 97 3500 
L 1216 3500 
L 2088 1081 
L 2956 3500 
L 4078 3500 
L 2700 0 
L 1472 0 
L 97 3500 
z
" transform="scale(0.015625)"/>
     <path id="DejaVuSans-Bold-79" d="M 78 3500 
L 1197 3500 
L 2138 1125 
L 2938 3500 
L 4056 3500 
L 2584 -331 
Q 2363 -916 2067 -1148 
Q 1772 -1381 1288 -1381 
L 641 -1381 
L 641 -647 
L 991 -647 
Q 1275 -647 1404 -556 
Q 1534 -466 1606 -231 
L 1638 -134 
L 78 3500 
z
" transform="scale(0.015625)"/>
     <path id="DejaVuSans-Bold-43" d="M 4288 256 
Q 3956 84 3597 -3 
Q 3238 -91 2847 -91 
Q 1681 -91 1000 561 
Q 319 1213 319 2328 
Q 319 3447 1000 4098 
Q 1681 4750 2847 4750 
Q 3238 4750 3597 4662 
Q 3956 4575 4288 4403 
L 4288 3438 
Q 3953 3666 3628 3772 
Q 3303 3878 2944 3878 
Q 2300 3878 1931 3465 
Q 1563 3053 1563 2328 
Q 1563 1606 1931 1193 
Q 2300 781 2944 781 
Q 3303 781 3628 887 
Q 3953 994 4288 1222 
L 4288 256 
z
" transform="scale(0.015625)"/>
     <path id="DejaVuSans-Bold-46" d="M 588 4666 
L 3834 4666 
L 3834 3756 
L 1791 3756 
L 1791 2888 
L 3713 2888 
L 3713 1978 
L 1791 1978 
L 1791 0 
L 588 0 
L 588 4666 
z
" transform="scale(0.015625)"/>
     <path id="DejaVuSans-Bold-63" d="M 3366 3391 
L 3366 2478 
Q 3138 2634 2908 2709 
Q 2678 2784 2431 2784 
Q 1963 2784 1702 2511 
Q 1441 2238 1441 1747 
Q 1441 1256 1702 982 
Q 1963 709 2431 709 
Q 2694 709 2930 787 
Q 3166 866 3366 1019 
L 3366 103 
Q 3103 6 2833 -42 
Q 2563 -91 2291 -91 
Q 1344 -91 809 395 
Q 275 881 275 1747 
Q 275 2613 809 3098 
Q 1344 3584 2291 3584 
Q 2566 3584 2833 3536 
Q 3100 3488 3366 3391 
z
" transform="scale(0.015625)"/>
     <path id="DejaVuSans-Bold-54" d="M 31 4666 
L 4331 4666 
L 4331 3756 
L 2784 3756 
L 2784 0 
L 1581 0 
L 1581 3756 
L 31 3756 
L 31 4666 
z
" transform="scale(0.015625)"/>
    </defs>
    <use xlink:href="#DejaVuSans-Bold-45"/>
    <use xlink:href="#DejaVuSans-Bold-64" transform="translate(68.310547 0)"/>
    <use xlink:href="#DejaVuSans-Bold-67" transform="translate(139.892578 0)"/>
    <use xlink:href="#DejaVuSans-Bold-65" transform="translate(211.474609 0)"/>
    <use xlink:href="#DejaVuSans-Bold-20" transform="translate(279.296875 0)"/>
    <use xlink:href="#DejaVuSans-Bold-53" transform="translate(314.111328 0)"/>
    <use xlink:href="#DejaVuSans-Bold-65" transform="translate(386.132812 0)"/>
    <use xlink:href="#DejaVuSans-Bold-6e" transform="translate(453.955078 0)"/>
    <use xlink:href="#DejaVuSans-Bold-73" transform="translate(525.146484 0)"/>
    <use xlink:href="#DejaVuSans-Bold-69" transform="translate(584.667969 0)"/>
    <use xlink:href="#DejaVuSans-Bold-74" transform="translate(618.945312 0)"/>
    <use xlink:href="#DejaVuSans-Bold-69" transform="translate(666.748047 0)"/>
    <use xlink:href="#DejaVuSans-Bold-76" transform="translate(701.025391 0)"/>
    <use xlink:href="#DejaVuSans-Bold-69" transform="translate(766.210938 0)"/>
    <use xlink:href="#DejaVuSans-Bold-74" transform="translate(800.488281 0)"/>
    <use xlink:href="#DejaVuSans-Bold-79" transform="translate(848.291016 0)"/>
    <use xlink:href="#DejaVuSans-Bold-20" transform="translate(913.476562 0)"/>
    <use xlink:href="#DejaVuSans-Bold-74" transform="translate(948.291016 0)"/>
    <use xlink:href="#DejaVuSans-Bold-6f" transform="translate(996.09375 0)"/>
    <use xlink:href="#DejaVuSans-Bold-20" transform="translate(1064.794922 0)"/>
    <use xlink:href="#DejaVuSans-Bold-43" transform="translate(1099.609375 0)"/>
    <use xlink:href="#DejaVuSans-Bold-6f" transform="translate(1172.998047 0)"/>
    <use xlink:href="#DejaVuSans-Bold-6e" transform="translate(1241.699219 0)"/>
    <use xlink:href="#DejaVuSans-Bold-73" transform="translate(1312.890625 0)"/>
    <use xlink:href="#DejaVuSans-Bold-65" transform="translate(1372.412109 0)"/>
    <use xlink:href="#DejaVuSans-Bold-72" transform="translate(1440.234375 0)"/>
    <use xlink:href="#DejaVuSans-Bold-76" transform="translate(1489.550781 0)"/>
    <use xlink:href="#DejaVuSans-Bold-61" transform="translate(1554.736328 0)"/>
    <use xlink:href="#DejaVuSans-Bold-74" transform="translate(1622.216797 0)"/>
    <use xlink:href="#DejaVuSans-Bold-69" transform="translate(1670.019531 0)"/>
    <use xlink:href="#DejaVuSans-Bold-76" transform="translate(1704.296875 0)"/>
    <use xlink:href="#DejaVuSans-Bold-65" transform="translate(1769.482422 0)"/>
    <use xlink:href="#DejaVuSans-Bold-20" transform="translate(1837.304688 0)"/>
    <use xlink:href="#DejaVuSans-Bold-46" transform="translate(1872.119141 0)"/>
    <use xlink:href="#DejaVuSans-Bold-72" transform="translate(1934.054688 0)"/>
    <use xlink:href="#DejaVuSans-Bold-69" transform="translate(1983.371094 0)"/>
    <use xlink:href="#DejaVuSans-Bold-63" transform="translate(2017.648438 0)"/>
    <use xlink:href="#DejaVuSans-Bold-74" transform="translate(2076.925781 0)"/>
    <use xlink:href="#DejaVuSans-Bold-69" transform="translate(2124.728516 0)"/>
    <use xlink:href="#DejaVuSans-Bold-6f" transform="translate(2159.005859 0)"/>
    <use xlink:href="#DejaVuSans-Bold-6e" transform="translate(2227.707031 0)"/>
    <use xlink:href="#DejaVuSans-Bold-20" transform="translate(2298.898438 0)"/>
    <use xlink:href="#DejaVuSans-Bold-54" transform="translate(2333.712891 0)"/>
    <use xlink:href="#DejaVuSans-Bold-69" transform="translate(2401.925781 0)"/>
    <use xlink:href="#DejaVuSans-Bold-65" transform="translate(2436.203125 0)"/>
    <use xlink:href="#DejaVuSans-Bold-72" transform="translate(2504.025391 0)"/>
    <use xlink:href="#DejaVuSans-Bold-73" transform="translate(2553.341797 0)"/>
   </g>
  </g>
 </g>
 <defs>
  <clipPath id="p11838e4629">
   <rect x="58.523438" y="41.977355" width="310.895997" height="209.694977"/>
  </clipPath>
  <clipPath id="p22ad13ea7d">
   <rect x="448.112104" y="41.977355" width="310.895997" height="209.694977"/>
  </clipPath>
 </defs>
</svg>
